<?xml version="1.0" encoding="UTF-8"?>
<svg xmlns="http://www.w3.org/2000/svg" xmlns:xlink="http://www.w3.org/1999/xlink" width="294.183" height="294.183" viewBox="0 0 294.183 294.183">
<path fill-rule="nonzero" fill="rgb(0%, 0%, 0%)" fill-opacity="1" d="M 33.703125 260.480469 L 260.476562 260.480469 L 260.476562 33.703125 L 33.703125 33.703125 Z M 33.703125 260.480469 "/>
<path fill-rule="nonzero" fill="rgb(0%, 0%, 0%)" fill-opacity="1" d="M 15.988281 189.613281 L 278.195312 189.613281 L 278.195312 104.570312 L 15.988281 104.570312 Z M 15.988281 189.613281 "/>
<path fill-rule="nonzero" fill="rgb(0%, 0%, 0%)" fill-opacity="1" d="M 104.570312 278.195312 L 189.609375 278.195312 L 189.609375 15.988281 L 104.570312 15.988281 Z M 104.570312 278.195312 "/>
<path fill-rule="nonzero" fill="rgb(0%, 0%, 0%)" fill-opacity="1" d="M 62.050781 24.292969 L 232.132812 24.292969 L 232.132812 7.285156 L 62.050781 7.285156 Z M 62.050781 24.292969 "/>
<path fill-rule="nonzero" fill="rgb(0%, 0%, 0%)" fill-opacity="1" d="M 62.050781 286.898438 L 232.132812 286.898438 L 232.132812 269.890625 L 62.050781 269.890625 Z M 62.050781 286.898438 "/>
<path fill-rule="nonzero" fill="rgb(0%, 0%, 0%)" fill-opacity="1" d="M 7.285156 232.132812 L 24.292969 232.132812 L 24.292969 62.050781 L 7.285156 62.050781 Z M 7.285156 232.132812 "/>
<path fill-rule="nonzero" fill="rgb(0%, 0%, 0%)" fill-opacity="1" d="M 269.890625 232.132812 L 286.898438 232.132812 L 286.898438 62.050781 L 269.890625 62.050781 Z M 269.890625 232.132812 "/>
<path fill="none" stroke-width="2.83466" stroke-linecap="butt" stroke-linejoin="miter" stroke="rgb(59.999084%, 0%, 0%)" stroke-opacity="1" stroke-miterlimit="10" d="M 122.600406 -85.240031 L 140.006656 -85.240031 L 140.006656 85.240437 L 122.600406 85.240437 L 122.600406 42.720906 L 113.584781 42.720906 L 113.584781 113.588094 L 42.717594 113.588094 L 42.717594 122.599812 L 85.241031 122.599812 L 85.241031 140.006062 L -85.239438 140.006062 L -85.239438 122.599812 L -42.719906 122.599812 L -42.719906 113.588094 L -113.587094 113.588094 L -113.587094 42.720906 L -122.598813 42.720906 L -122.598813 85.240437 L -140.005063 85.240437 L -140.005063 -85.240031 L -122.598813 -85.240031 L -122.598813 -42.7205 L -113.587094 -42.7205 L -113.587094 -113.587688 L -42.719906 -113.587688 L -42.719906 -122.599406 L -85.239438 -122.599406 L -85.239438 -140.005656 L 85.241031 -140.005656 L 85.241031 -122.599406 L 42.717594 -122.599406 L 42.717594 -113.587688 L 113.584781 -113.587688 L 113.584781 -42.7205 L 122.600406 -42.7205 Z M 122.600406 -85.240031 " transform="matrix(1, 0, 0, -1, 147.091, 147.092)"/>
<path fill-rule="nonzero" fill="rgb(100%, 98.010254%, 61.000061%)" fill-opacity="1" stroke-width="0.3985" stroke-linecap="butt" stroke-linejoin="miter" stroke="rgb(0%, 0%, 0%)" stroke-opacity="1" stroke-miterlimit="10" d="M 113.385562 -0.00175 C 113.385562 62.62325 62.623844 113.388875 -0.00115625 113.388875 C -62.62225 113.388875 -113.387875 62.62325 -113.387875 -0.00175 C -113.387875 -62.622844 -62.62225 -113.388469 -0.00115625 -113.388469 C 62.623844 -113.388469 113.385562 -62.622844 113.385562 -0.00175 Z M 113.385562 -0.00175 " transform="matrix(1, 0, 0, -1, 147.091, 147.092)"/>
<path fill="none" stroke-width="5.66934" stroke-linecap="butt" stroke-linejoin="miter" stroke="rgb(0%, 0%, 69.999695%)" stroke-opacity="1" stroke-miterlimit="10" d="M 106.299625 -0.00175 C 106.299625 58.709187 58.709781 106.299031 -0.00115625 106.299031 C -58.708188 106.299031 -106.301938 58.709187 -106.301938 -0.00175 C -106.301938 -58.708781 -58.708188 -106.298625 -0.00115625 -106.298625 C 58.709781 -106.298625 106.299625 -58.708781 106.299625 -0.00175 Z M 106.299625 -0.00175 " transform="matrix(1, 0, 0, -1, 147.091, 147.092)"/>
<path fill-rule="nonzero" fill="rgb(100%, 50%, 0%)" fill-opacity="1" stroke-width="0.3985" stroke-linecap="butt" stroke-linejoin="miter" stroke="rgb(0%, 0%, 0%)" stroke-opacity="1" stroke-miterlimit="10" d="M 99.213687 -0.00175 C 99.213687 54.795125 54.795719 99.213094 -0.00115625 99.213094 C -54.794125 99.213094 -99.212094 54.795125 -99.212094 -0.00175 C -99.212094 -54.794719 -54.794125 -99.212688 -0.00115625 -99.212688 C 54.795719 -99.212688 99.213687 -54.794719 99.213687 -0.00175 Z M 99.213687 -0.00175 " transform="matrix(1, 0, 0, -1, 147.091, 147.092)"/>
<path fill-rule="nonzero" fill="rgb(69.999695%, 69.999695%, 100%)" fill-opacity="1" stroke-width="0.3985" stroke-linecap="butt" stroke-linejoin="miter" stroke="rgb(0%, 0%, 0%)" stroke-opacity="1" stroke-miterlimit="10" d="M 83.405094 16.588094 C 93.850406 14.443562 92.034 4.017781 99.213687 -0.00175 C 92.034 -4.017375 93.850406 -14.443156 83.405094 -16.587688 C 83.405094 -3.56425 80.830875 9.345906 75.8465 21.377156 Z M 83.405094 16.588094 " transform="matrix(1, 0, 0, -1, 147.091, 147.092)"/>
<path fill-rule="nonzero" fill="rgb(69.999695%, 69.999695%, 100%)" fill-opacity="1" stroke-width="0.3985" stroke-linecap="butt" stroke-linejoin="miter" stroke="rgb(0%, 0%, 0%)" stroke-opacity="1" stroke-miterlimit="10" d="M 70.705875 47.244344 C 81.178531 49.259969 83.494937 38.93575 91.659 37.967 C 86.573062 31.509969 92.237125 22.568562 83.405094 16.588094 C 78.420719 28.619344 71.112125 39.568562 61.901187 48.7795 Z M 70.705875 47.244344 " transform="matrix(1, 0, 0, -1, 147.091, 147.092)"/>
<path fill-rule="nonzero" fill="rgb(69.999695%, 69.999695%, 100%)" fill-opacity="1" stroke-width="0.3985" stroke-linecap="butt" stroke-linejoin="miter" stroke="rgb(0%, 0%, 0%)" stroke-opacity="1" stroke-miterlimit="10" d="M 47.244937 70.705281 C 56.147281 76.580281 62.237125 67.920125 70.155094 70.1545 C 67.920719 62.236531 76.580875 56.146687 70.705875 47.244344 C 61.494937 56.451375 50.549625 63.763875 38.514469 68.74825 Z M 47.244937 70.705281 " transform="matrix(1, 0, 0, -1, 147.091, 147.092)"/>
<path fill-rule="nonzero" fill="rgb(69.999695%, 69.999695%, 100%)" fill-opacity="1" stroke-width="0.3985" stroke-linecap="butt" stroke-linejoin="miter" stroke="rgb(0%, 0%, 0%)" stroke-opacity="1" stroke-miterlimit="10" d="M 16.588687 83.4045 C 22.569156 92.236531 31.510562 86.572469 37.963687 91.658406 C 38.936344 83.494344 49.260562 81.181844 47.244937 70.705281 C 35.209781 75.689656 22.303531 78.259969 9.280094 78.259969 Z M 16.588687 83.4045 " transform="matrix(1, 0, 0, -1, 147.091, 147.092)"/>
<path fill-rule="nonzero" fill="rgb(69.999695%, 69.999695%, 100%)" fill-opacity="1" stroke-width="0.3985" stroke-linecap="butt" stroke-linejoin="miter" stroke="rgb(0%, 0%, 0%)" stroke-opacity="1" stroke-miterlimit="10" d="M -16.587094 83.4045 C -14.446469 93.849812 -4.016781 92.037312 -0.00115625 99.213094 C 4.018375 92.037312 14.444156 93.849812 16.588687 83.4045 C 3.56525 83.4045 -9.344906 80.830281 -21.376156 75.849812 Z M -16.587094 83.4045 " transform="matrix(1, 0, 0, -1, 147.091, 147.092)"/>
<path fill-rule="nonzero" fill="rgb(69.999695%, 69.999695%, 100%)" fill-opacity="1" stroke-width="0.3985" stroke-linecap="butt" stroke-linejoin="miter" stroke="rgb(0%, 0%, 0%)" stroke-opacity="1" stroke-miterlimit="10" d="M -47.243344 70.705281 C -49.262875 81.181844 -38.93475 83.494344 -37.966 91.658406 C -31.508969 86.572469 -22.567563 92.236531 -16.587094 83.4045 C -28.62225 78.420125 -39.567563 71.111531 -48.7785 61.900594 Z M -47.243344 70.705281 " transform="matrix(1, 0, 0, -1, 147.091, 147.092)"/>
<path fill-rule="nonzero" fill="rgb(69.999695%, 69.999695%, 100%)" fill-opacity="1" stroke-width="0.3985" stroke-linecap="butt" stroke-linejoin="miter" stroke="rgb(0%, 0%, 0%)" stroke-opacity="1" stroke-miterlimit="10" d="M -70.704281 47.244344 C -76.579281 56.146687 -67.919125 62.236531 -70.1535 70.1545 C -62.239438 67.920125 -56.149594 76.580281 -47.243344 70.705281 C -56.454281 61.49825 -63.762875 50.549031 -68.74725 38.517781 Z M -70.704281 47.244344 " transform="matrix(1, 0, 0, -1, 147.091, 147.092)"/>
<path fill-rule="nonzero" fill="rgb(69.999695%, 69.999695%, 100%)" fill-opacity="1" stroke-width="0.3985" stroke-linecap="butt" stroke-linejoin="miter" stroke="rgb(0%, 0%, 0%)" stroke-opacity="1" stroke-miterlimit="10" d="M -83.4035 16.588094 C -92.235531 22.568562 -86.571469 31.509969 -91.657406 37.967 C -83.49725 38.93575 -81.180844 49.259969 -70.704281 47.244344 C -75.688656 35.213094 -78.262875 22.302937 -78.262875 9.2795 Z M -83.4035 16.588094 " transform="matrix(1, 0, 0, -1, 147.091, 147.092)"/>
<path fill-rule="nonzero" fill="rgb(69.999695%, 69.999695%, 100%)" fill-opacity="1" stroke-width="0.3985" stroke-linecap="butt" stroke-linejoin="miter" stroke="rgb(0%, 0%, 0%)" stroke-opacity="1" stroke-miterlimit="10" d="M -83.4035 -16.587688 C -93.852719 -14.443156 -92.036313 -4.017375 -99.212094 -0.00175 C -92.036313 4.017781 -93.852719 14.443562 -83.4035 16.588094 C -83.4035 3.564656 -80.833188 -9.3455 -75.848813 -21.37675 Z M -83.4035 -16.587688 " transform="matrix(1, 0, 0, -1, 147.091, 147.092)"/>
<path fill-rule="nonzero" fill="rgb(69.999695%, 69.999695%, 100%)" fill-opacity="1" stroke-width="0.3985" stroke-linecap="butt" stroke-linejoin="miter" stroke="rgb(0%, 0%, 0%)" stroke-opacity="1" stroke-miterlimit="10" d="M -70.704281 -47.243938 C -81.180844 -49.263469 -83.49725 -38.935344 -91.657406 -37.966594 C -86.571469 -31.509563 -92.235531 -22.568156 -83.4035 -16.587688 C -78.419125 -28.618938 -71.110531 -39.568156 -61.899594 -48.779094 Z M -70.704281 -47.243938 " transform="matrix(1, 0, 0, -1, 147.091, 147.092)"/>
<path fill-rule="nonzero" fill="rgb(69.999695%, 69.999695%, 100%)" fill-opacity="1" stroke-width="0.3985" stroke-linecap="butt" stroke-linejoin="miter" stroke="rgb(0%, 0%, 0%)" stroke-opacity="1" stroke-miterlimit="10" d="M -47.243344 -70.704875 C -56.149594 -76.579875 -62.239438 -67.919719 -70.1535 -70.154094 C -67.919125 -62.236125 -76.579281 -56.150188 -70.704281 -47.243938 C -61.49725 -56.450969 -50.548031 -63.763469 -38.516781 -68.747844 Z M -47.243344 -70.704875 " transform="matrix(1, 0, 0, -1, 147.091, 147.092)"/>
<path fill-rule="nonzero" fill="rgb(69.999695%, 69.999695%, 100%)" fill-opacity="1" stroke-width="0.3985" stroke-linecap="butt" stroke-linejoin="miter" stroke="rgb(0%, 0%, 0%)" stroke-opacity="1" stroke-miterlimit="10" d="M -16.587094 -83.404094 C -22.567563 -92.236125 -31.508969 -86.572063 -37.966 -91.658 C -38.93475 -83.493938 -49.262875 -81.181438 -47.243344 -70.704875 C -35.212094 -75.68925 -22.301938 -78.259563 -9.2785 -78.259563 Z M -16.587094 -83.404094 " transform="matrix(1, 0, 0, -1, 147.091, 147.092)"/>
<path fill-rule="nonzero" fill="rgb(69.999695%, 69.999695%, 100%)" fill-opacity="1" stroke-width="0.3985" stroke-linecap="butt" stroke-linejoin="miter" stroke="rgb(0%, 0%, 0%)" stroke-opacity="1" stroke-miterlimit="10" d="M 16.588687 -83.404094 C 14.444156 -93.853313 4.018375 -92.036906 -0.00115625 -99.212688 C -4.016781 -92.036906 -14.446469 -93.853313 -16.587094 -83.404094 C -3.563656 -83.404094 9.342594 -80.833781 21.37775 -75.849406 Z M 16.588687 -83.404094 " transform="matrix(1, 0, 0, -1, 147.091, 147.092)"/>
<path fill-rule="nonzero" fill="rgb(69.999695%, 69.999695%, 100%)" fill-opacity="1" stroke-width="0.3985" stroke-linecap="butt" stroke-linejoin="miter" stroke="rgb(0%, 0%, 0%)" stroke-opacity="1" stroke-miterlimit="10" d="M 47.244937 -70.704875 C 49.260562 -81.181438 38.936344 -83.493938 37.963687 -91.658 C 31.510562 -86.572063 22.569156 -92.236125 16.588687 -83.404094 C 28.619937 -78.419719 39.569156 -71.111125 48.780094 -61.900188 Z M 47.244937 -70.704875 " transform="matrix(1, 0, 0, -1, 147.091, 147.092)"/>
<path fill-rule="nonzero" fill="rgb(69.999695%, 69.999695%, 100%)" fill-opacity="1" stroke-width="0.3985" stroke-linecap="butt" stroke-linejoin="miter" stroke="rgb(0%, 0%, 0%)" stroke-opacity="1" stroke-miterlimit="10" d="M 70.705875 -47.243938 C 76.580875 -56.150188 67.920719 -62.236125 70.155094 -70.154094 C 62.237125 -67.919719 56.147281 -76.579875 47.244937 -70.704875 C 56.451969 -61.497844 63.764469 -50.548625 68.744937 -38.517375 Z M 70.705875 -47.243938 " transform="matrix(1, 0, 0, -1, 147.091, 147.092)"/>
<path fill-rule="nonzero" fill="rgb(69.999695%, 69.999695%, 100%)" fill-opacity="1" stroke-width="0.3985" stroke-linecap="butt" stroke-linejoin="miter" stroke="rgb(0%, 0%, 0%)" stroke-opacity="1" stroke-miterlimit="10" d="M 83.405094 -16.587688 C 92.237125 -22.568156 86.573062 -31.509563 91.659 -37.966594 C 83.494937 -38.935344 81.178531 -49.263469 70.705875 -47.243938 C 75.69025 -35.212688 78.260562 -22.302531 78.260562 -9.279094 Z M 83.405094 -16.587688 " transform="matrix(1, 0, 0, -1, 147.091, 147.092)"/>
<path fill-rule="nonzero" fill="rgb(100%, 94.898987%, 0%)" fill-opacity="1" stroke-width="0.3985" stroke-linecap="butt" stroke-linejoin="miter" stroke="rgb(0%, 0%, 0%)" stroke-opacity="1" stroke-miterlimit="10" d="M 85.041812 -0.00175 C 85.041812 46.967 46.967594 85.041219 -0.00115625 85.041219 C -46.966 85.041219 -85.040219 46.967 -85.040219 -0.00175 C -85.040219 -46.966594 -46.966 -85.040813 -0.00115625 -85.040813 C 46.967594 -85.040813 85.041812 -46.966594 85.041812 -0.00175 Z M 85.041812 -0.00175 " transform="matrix(1, 0, 0, -1, 147.091, 147.092)"/>
<path fill-rule="nonzero" fill="rgb(0%, 29.998779%, 0%)" fill-opacity="1" stroke-width="0.3985" stroke-linecap="butt" stroke-linejoin="miter" stroke="rgb(0%, 0%, 0%)" stroke-opacity="1" stroke-miterlimit="10" d="M 65.4715 27.119344 C 77.045719 24.291219 77.655094 6.795125 85.041812 -0.00175 C 77.655094 -6.794719 77.045719 -24.290813 65.4715 -27.118938 C 72.659 -9.755656 72.659 9.756062 65.4715 27.119344 Z M 65.4715 27.119344 " transform="matrix(1, 0, 0, -1, 147.091, 147.092)"/>
<path fill-rule="nonzero" fill="rgb(0%, 29.998779%, 0%)" fill-opacity="1" stroke-width="0.3985" stroke-linecap="butt" stroke-linejoin="miter" stroke="rgb(0%, 0%, 0%)" stroke-opacity="1" stroke-miterlimit="10" d="M 27.116031 65.470906 C 37.299625 71.6545 50.108219 59.717 60.131656 60.131062 C 59.713687 50.107625 71.655094 37.302937 65.4715 27.119344 C 58.280094 44.478719 44.479312 58.2795 27.116031 65.470906 Z M 27.116031 65.470906 " transform="matrix(1, 0, 0, -1, 147.091, 147.092)"/>
<path fill-rule="nonzero" fill="rgb(0%, 29.998779%, 0%)" fill-opacity="1" stroke-width="0.3985" stroke-linecap="butt" stroke-linejoin="miter" stroke="rgb(0%, 0%, 0%)" stroke-opacity="1" stroke-miterlimit="10" d="M -27.118344 65.470906 C -24.294125 77.045125 -6.794125 77.6545 -0.00115625 85.041219 C 6.795719 77.6545 24.291812 77.045125 27.116031 65.470906 C 9.756656 72.662312 -9.758969 72.662312 -27.118344 65.470906 Z M -27.118344 65.470906 " transform="matrix(1, 0, 0, -1, 147.091, 147.092)"/>
<path fill-rule="nonzero" fill="rgb(0%, 29.998779%, 0%)" fill-opacity="1" stroke-width="0.3985" stroke-linecap="butt" stroke-linejoin="miter" stroke="rgb(0%, 0%, 0%)" stroke-opacity="1" stroke-miterlimit="10" d="M -65.469906 27.119344 C -71.657406 37.302937 -59.716 50.107625 -60.133969 60.131062 C -50.106625 59.717 -37.301938 71.6545 -27.118344 65.470906 C -44.477719 58.2795 -58.2785 44.478719 -65.469906 27.119344 Z M -65.469906 27.119344 " transform="matrix(1, 0, 0, -1, 147.091, 147.092)"/>
<path fill-rule="nonzero" fill="rgb(0%, 29.998779%, 0%)" fill-opacity="1" stroke-width="0.3985" stroke-linecap="butt" stroke-linejoin="miter" stroke="rgb(0%, 0%, 0%)" stroke-opacity="1" stroke-miterlimit="10" d="M -65.469906 -27.118938 C -77.044125 -24.290813 -77.657406 -6.794719 -85.040219 -0.00175 C -77.657406 6.795125 -77.044125 24.291219 -65.469906 27.119344 C -72.661313 9.756062 -72.661313 -9.755656 -65.469906 -27.118938 Z M -65.469906 -27.118938 " transform="matrix(1, 0, 0, -1, 147.091, 147.092)"/>
<path fill-rule="nonzero" fill="rgb(0%, 29.998779%, 0%)" fill-opacity="1" stroke-width="0.3985" stroke-linecap="butt" stroke-linejoin="miter" stroke="rgb(0%, 0%, 0%)" stroke-opacity="1" stroke-miterlimit="10" d="M -27.118344 -65.4705 C -37.301938 -71.658 -50.106625 -59.716594 -60.133969 -60.134563 C -59.716 -50.107219 -71.657406 -37.302531 -65.469906 -27.118938 C -58.2785 -44.478313 -44.477719 -58.279094 -27.118344 -65.4705 Z M -27.118344 -65.4705 " transform="matrix(1, 0, 0, -1, 147.091, 147.092)"/>
<path fill-rule="nonzero" fill="rgb(0%, 29.998779%, 0%)" fill-opacity="1" stroke-width="0.3985" stroke-linecap="butt" stroke-linejoin="miter" stroke="rgb(0%, 0%, 0%)" stroke-opacity="1" stroke-miterlimit="10" d="M 27.116031 -65.4705 C 24.291812 -77.044719 6.795719 -77.658 -0.00115625 -85.040813 C -6.794125 -77.658 -24.294125 -77.044719 -27.118344 -65.4705 C -9.758969 -72.661906 9.756656 -72.661906 27.116031 -65.4705 Z M 27.116031 -65.4705 " transform="matrix(1, 0, 0, -1, 147.091, 147.092)"/>
<path fill-rule="nonzero" fill="rgb(0%, 29.998779%, 0%)" fill-opacity="1" stroke-width="0.3985" stroke-linecap="butt" stroke-linejoin="miter" stroke="rgb(0%, 0%, 0%)" stroke-opacity="1" stroke-miterlimit="10" d="M 65.4715 -27.118938 C 71.655094 -37.302531 59.713687 -50.107219 60.131656 -60.134563 C 50.108219 -59.716594 37.299625 -71.658 27.116031 -65.4705 C 44.479312 -58.279094 58.280094 -44.478313 65.4715 -27.118938 Z M 65.4715 -27.118938 " transform="matrix(1, 0, 0, -1, 147.091, 147.092)"/>
<path fill-rule="nonzero" fill="rgb(100%, 100%, 100%)" fill-opacity="1" stroke-width="0.79701" stroke-linecap="butt" stroke-linejoin="miter" stroke="rgb(0%, 0%, 0%)" stroke-opacity="1" stroke-miterlimit="10" d="M 70.866031 -0.00175 C 70.866031 39.138875 39.139469 70.865437 -0.00115625 70.865437 C -39.137875 70.865437 -70.868344 39.138875 -70.868344 -0.00175 C -70.868344 -39.138469 -39.137875 -70.868938 -0.00115625 -70.868938 C 39.139469 -70.868938 70.866031 -39.138469 70.866031 -0.00175 Z M 70.866031 -0.00175 " transform="matrix(1, 0, 0, -1, 147.091, 147.092)"/>
<path fill-rule="nonzero" fill="rgb(100%, 0%, 0%)" fill-opacity="1" stroke-width="0.3985" stroke-linecap="butt" stroke-linejoin="miter" stroke="rgb(0%, 0%, 0%)" stroke-opacity="1" stroke-miterlimit="10" d="M 2.834781 -0.00175 C 2.834781 1.564656 1.56525 2.834187 -0.00115625 2.834187 C -1.567563 2.834187 -2.833188 1.564656 -2.833188 -0.00175 C -2.833188 -1.56425 -1.567563 -2.833781 -0.00115625 -2.833781 C 1.56525 -2.833781 2.834781 -1.56425 2.834781 -0.00175 Z M 2.834781 -0.00175 " transform="matrix(1, 0, 0, -1, 147.091, 147.092)"/>
<path fill="none" stroke-width="0.79701" stroke-linecap="butt" stroke-linejoin="miter" stroke="rgb(0%, 0%, 0%)" stroke-opacity="1" stroke-miterlimit="10" d="M -68.258969 18.982625 L -0.00115625 -70.849406 L 68.260562 18.982625 Z M -68.258969 18.982625 " transform="matrix(1, 0, 0, -1, 147.091, 147.092)"/>
<path fill="none" stroke-width="0.79701" stroke-linecap="butt" stroke-linejoin="miter" stroke="rgb(0%, 0%, 0%)" stroke-opacity="1" stroke-miterlimit="10" d="M -68.735531 -17.177531 L -0.00115625 70.849812 L 68.737125 -17.177531 Z M -68.735531 -17.177531 " transform="matrix(1, 0, 0, -1, 147.091, 147.092)"/>
<path fill="none" stroke-width="0.79701" stroke-linecap="butt" stroke-linejoin="miter" stroke="rgb(0%, 0%, 0%)" stroke-opacity="1" stroke-miterlimit="10" d="M -36.333188 -49.622844 L -0.00115625 18.982625 L 36.330875 -49.622844 Z M -36.333188 -49.622844 " transform="matrix(1, 0, 0, -1, 147.091, 147.092)"/>
<path fill="none" stroke-width="0.79701" stroke-linecap="butt" stroke-linejoin="miter" stroke="rgb(0%, 0%, 0%)" stroke-opacity="1" stroke-miterlimit="10" d="M -50.825375 -33.954875 L -0.00115625 50.93575 L 50.823062 -33.954875 Z M -50.825375 -33.954875 " transform="matrix(1, 0, 0, -1, 147.091, 147.092)"/>
<path fill="none" stroke-width="0.79701" stroke-linecap="butt" stroke-linejoin="miter" stroke="rgb(0%, 0%, 0%)" stroke-opacity="1" stroke-miterlimit="10" d="M -42.165219 50.93575 L -0.00115625 -7.552531 L 42.166812 50.93575 Z M -42.165219 50.93575 " transform="matrix(1, 0, 0, -1, 147.091, 147.092)"/>
<path fill="none" stroke-width="0.79701" stroke-linecap="butt" stroke-linejoin="miter" stroke="rgb(0%, 0%, 0%)" stroke-opacity="1" stroke-miterlimit="10" d="M -48.895688 33.213094 L -0.00115625 -49.622844 L 48.897281 33.213094 Z M -48.895688 33.213094 " transform="matrix(1, 0, 0, -1, 147.091, 147.092)"/>
<path fill="none" stroke-width="0.79701" stroke-linecap="butt" stroke-linejoin="miter" stroke="rgb(0%, 0%, 0%)" stroke-opacity="1" stroke-miterlimit="10" d="M -24.833188 -7.552531 L -0.00115625 33.213094 L 24.834781 -7.552531 Z M -24.833188 -7.552531 " transform="matrix(1, 0, 0, -1, 147.091, 147.092)"/>
<path fill="none" stroke-width="0.79701" stroke-linecap="butt" stroke-linejoin="miter" stroke="rgb(0%, 0%, 0%)" stroke-opacity="1" stroke-miterlimit="10" d="M -23.841 11.119344 L -0.00115625 -33.954875 L 23.838687 11.119344 Z M -23.841 11.119344 " transform="matrix(1, 0, 0, -1, 147.091, 147.092)"/>
<path fill="none" stroke-width="0.79701" stroke-linecap="butt" stroke-linejoin="miter" stroke="rgb(0%, 0%, 0%)" stroke-opacity="1" stroke-miterlimit="10" d="M -17.985531 3.68575 L -0.00115625 -17.177531 L 17.987125 3.68575 Z M -17.985531 3.68575 " transform="matrix(1, 0, 0, -1, 147.091, 147.092)"/>
</svg>
